<?xml version="1.0" encoding="utf-8"?>
<!-- Generator: Adobe Illustrator 21.1.0, SVG Export Plug-In . SVG Version: 6.00 Build 0)  -->
<svg version="1.1" id="Layer_1" xmlns="http://www.w3.org/2000/svg" xmlns:xlink="http://www.w3.org/1999/xlink" x="0px" y="0px"
	 viewBox="0 0 504.1 504.1" style="enable-background:new 0 0 504.1 504.1;" xml:space="preserve">
<style type="text/css">
	.st0{fill:#F0F0F0;}
	.st1{fill:#D2D2D2;}
	.st2{fill:#EC6156;}
	.st3{fill:#F4776D;}
	.st4{fill:#D5584E;}
</style>
<path class="st0" d="M204.8,285.1V99.6c0-26.8,20.5-48.4,47.3-48.4s47.3,21.7,47.3,48.4v185.5c0,10.2,5.1,20.1,12.6,27.6
	c14.2,14.6,22.8,34.7,22.8,56.7c0.4,44.1-35.4,81.9-79.6,83.5c-47.3,2-85.9-35.8-85.9-82.7c0-22.4,8.7-42.5,23.2-57.5
	C199.3,305.2,204.8,295.4,204.8,285.1z"/>
<g>
	<path class="st1" d="M245.7,155.3v-7.9c0-2-1.9-3.9-4.7-3.9h-36.5v15.8h36.5C243.8,159.3,245.7,157.7,245.7,155.3z"/>
	<path class="st1" d="M245.7,191.4v-7.9c0-2-1.9-3.9-4.7-3.9h-36.5v15.8h36.5C243.8,195.3,245.7,193.8,245.7,191.4z"/>
	<path class="st1" d="M240.9,107.4h-36.5v15.8h36.5c2.8,0,4.7-1.6,4.7-3.9v-7.9C245.7,109.3,243.8,107.4,240.9,107.4z"/>
</g>
<path class="st2" d="M283.6,311.1V236h-63v75.1c-21.3,11.4-35.4,33.5-35.4,59.1c0,37,29.9,67,67,67c37,0,67-29.9,67-67
	C319,344.6,304.8,322.6,283.6,311.1z"/>
<path class="st3" d="M283.6,311.1V236h-31.5v201.2c37,0,67-29.9,67-67C319,344.6,304.8,322.6,283.6,311.1z"/>
<path class="st4" d="M252.1,224.2c17.3,0,31.5,5.1,31.5,11.8c0,6.7-14.2,11.8-31.5,11.8s-31.5-5.1-31.5-11.8
	C220.6,229.7,234.7,224.2,252.1,224.2z"/>
</svg>
