<?xml version="1.0" encoding="utf-8"?>
<!-- Generator: Adobe Illustrator 21.0.2, SVG Export Plug-In . SVG Version: 6.00 Build 0)  -->
<svg version="1.1" id="图层_1" xmlns="http://www.w3.org/2000/svg" xmlns:xlink="http://www.w3.org/1999/xlink" x="0px" y="0px"
	 viewBox="0 0 612 792" style="enable-background:new 0 0 612 792;" xml:space="preserve">
<style type="text/css">
	.st0{fill:#5BC1BE;}
	.st1{fill:#70C9C9;}
	.st2{opacity:0.2;}
	.st3{fill:#FFFFFF;}
</style>
<path class="st0" d="M235.5,75c16.4,28.5,33,56.2,48.6,84.4c18.2,33.1-2.6,74.1-39.9,80.4c-33.5,5.6-64.5-21.2-64-55.2
	c0.1-9.4,2.3-18.3,7-26.4c15.5-26.9,31-53.8,46.6-80.8C234.3,76.8,234.8,76.1,235.5,75z"/>
<path class="st1" d="M370.1,198.6c21.1,36.5,42.3,72,62.3,108.3c23.3,42.4-3.3,95.1-51.1,103.1c-43,7.2-82.7-27.2-82-70.8
	c0.2-12.1,3-23.4,9-33.9c19.9-34.6,39.8-69,59.7-103.6C368.6,200.8,369.2,200,370.1,198.6z"/>
<path class="st1" d="M277.8,422.2c16.4,28.5,33,56.2,48.6,84.4c18.2,33.1-2.6,74.1-39.9,80.4c-33.5,5.6-64.5-21.2-64-55.2
	c0.1-9.4,2.3-18.3,7-26.4c15.5-26.9,31-53.8,46.6-80.8C276.6,423.9,277.1,423.3,277.8,422.2z"/>
<g class="st2">
	<g>
		<path class="st3" d="M284.3,159.4c-15.1-28.3-31.2-55.9-47.1-84.4v165.6c2.8,0,5.6-0.2,8.4-0.7
			C281.8,233.6,301.9,192.5,284.3,159.4z"/>
	</g>
</g>
<g class="st2">
	<g>
		<path class="st3" d="M307.8,306.8c-23.3,42.4,3.3,95.1,51.2,103.1c3.8,0.6,7.5,0.9,11.2,0.9V198.6
			C349.1,235.1,327.8,270.6,307.8,306.8z"/>
	</g>
</g>
<g class="st2">
	<g>
		<path class="st3" d="M326.1,506.6c-15.5-28.3-32-55.9-48.3-84.4v165.6c2.8,0,5.7-0.2,8.6-0.7C323.6,580.8,344.2,539.7,326.1,506.6
			z"/>
	</g>
</g>
</svg>
